<svg xmlns="http://www.w3.org/2000/svg" viewBox="0 0 800 500"><defs><linearGradient id="bg" x1="0" y1="0" x2="0" y2="1"><stop offset="0" stop-color="#2f4fce"/><stop offset="1" stop-color="#4f87d8"/></linearGradient><radialGradient id="fb" cx="38%" cy="34%" r="66%"><stop offset="0" stop-color="rgba(255,255,255,.5)"/><stop offset=".45" stop-color="rgba(255,255,255,.07)"/><stop offset="1" stop-color="rgba(255,255,255,.55)"/></radialGradient></defs><rect width="800" height="500" fill="url(#bg)"/><g opacity="0.73"><circle cx="572" cy="337" r="11" fill="url(#fb)" stroke="rgba(255,255,255,.5)" stroke-width="1"/><circle cx="568" cy="333" r="2" fill="rgba(255,255,255,.9)"/></g><g opacity="0.82"><circle cx="249" cy="462" r="12" fill="url(#fb)" stroke="rgba(255,255,255,.5)" stroke-width="1"/><circle cx="245" cy="457" r="2" fill="rgba(255,255,255,.9)"/></g><g opacity="0.7"><circle cx="446" cy="362" r="16" fill="url(#fb)" stroke="rgba(255,255,255,.5)" stroke-width="1"/><circle cx="441" cy="356" r="3" fill="rgba(255,255,255,.9)"/></g><g opacity="0.51"><circle cx="354" cy="220" r="14" fill="url(#fb)" stroke="rgba(255,255,255,.5)" stroke-width="1"/></g><g opacity="0.76"><circle cx="545" cy="302" r="12" fill="url(#fb)" stroke="rgba(255,255,255,.5)" stroke-width="1"/><circle cx="541" cy="298" r="2" fill="rgba(255,255,255,.9)"/></g><g opacity="0.86"><circle cx="303" cy="383" r="6" fill="url(#fb)" stroke="rgba(255,255,255,.5)" stroke-width="1"/></g><g opacity="0.71"><circle cx="514" cy="255" r="6" fill="url(#fb)" stroke="rgba(255,255,255,.5)" stroke-width="1"/></g><g opacity="0.6"><circle cx="438" cy="262" r="12" fill="url(#fb)" stroke="rgba(255,255,255,.5)" stroke-width="1"/></g><g opacity="0.55"><circle cx="399" cy="318" r="7" fill="url(#fb)" stroke="rgba(255,255,255,.5)" stroke-width="1"/><circle cx="397" cy="316" r="1" fill="rgba(255,255,255,.9)"/></g><g opacity="0.49"><circle cx="342" cy="336" r="45" fill="url(#fb)" stroke="rgba(255,255,255,.5)" stroke-width="1"/><circle cx="327" cy="320" r="7" fill="rgba(255,255,255,.9)"/></g><g opacity="0.57"><circle cx="437" cy="417" r="15" fill="url(#fb)" stroke="rgba(255,255,255,.5)" stroke-width="1"/></g><g opacity="0.48"><circle cx="362" cy="283" r="7" fill="url(#fb)" stroke="rgba(255,255,255,.5)" stroke-width="1"/></g><g opacity="0.76"><circle cx="482" cy="314" r="17" fill="url(#fb)" stroke="rgba(255,255,255,.5)" stroke-width="1"/></g><g opacity="0.46"><circle cx="350" cy="382" r="11" fill="url(#fb)" stroke="rgba(255,255,255,.5)" stroke-width="1"/><circle cx="346" cy="378" r="2" fill="rgba(255,255,255,.9)"/></g><g opacity="0.8"><circle cx="399" cy="369" r="7" fill="url(#fb)" stroke="rgba(255,255,255,.5)" stroke-width="1"/></g><g opacity="0.67"><circle cx="369" cy="313" r="27" fill="url(#fb)" stroke="rgba(255,255,255,.5)" stroke-width="1"/><circle cx="360" cy="303" r="4" fill="rgba(255,255,255,.9)"/></g><g opacity="0.74"><circle cx="495" cy="315" r="14" fill="url(#fb)" stroke="rgba(255,255,255,.5)" stroke-width="1"/></g><g opacity="0.79"><circle cx="325" cy="402" r="13" fill="url(#fb)" stroke="rgba(255,255,255,.5)" stroke-width="1"/></g><g opacity="0.42"><circle cx="646" cy="306" r="13" fill="url(#fb)" stroke="rgba(255,255,255,.5)" stroke-width="1"/></g><g opacity="0.84"><circle cx="302" cy="199" r="15" fill="url(#fb)" stroke="rgba(255,255,255,.5)" stroke-width="1"/></g><g opacity="0.83"><circle cx="549" cy="377" r="16" fill="url(#fb)" stroke="rgba(255,255,255,.5)" stroke-width="1"/><circle cx="544" cy="371" r="3" fill="rgba(255,255,255,.9)"/></g><g opacity="0.38"><circle cx="339" cy="405" r="8" fill="url(#fb)" stroke="rgba(255,255,255,.5)" stroke-width="1"/></g><g opacity="0.73"><circle cx="493" cy="394" r="10" fill="url(#fb)" stroke="rgba(255,255,255,.5)" stroke-width="1"/></g><g opacity="0.88"><circle cx="470" cy="282" r="13" fill="url(#fb)" stroke="rgba(255,255,255,.5)" stroke-width="1"/><circle cx="466" cy="277" r="2" fill="rgba(255,255,255,.9)"/></g><g opacity="0.85"><circle cx="580" cy="390" r="17" fill="url(#fb)" stroke="rgba(255,255,255,.5)" stroke-width="1"/></g><g opacity="0.75"><circle cx="365" cy="311" r="8" fill="url(#fb)" stroke="rgba(255,255,255,.5)" stroke-width="1"/></g><g opacity="0.55"><circle cx="346" cy="415" r="13" fill="url(#fb)" stroke="rgba(255,255,255,.5)" stroke-width="1"/><circle cx="342" cy="410" r="2" fill="rgba(255,255,255,.9)"/></g><g opacity="0.83"><circle cx="309" cy="195" r="7" fill="url(#fb)" stroke="rgba(255,255,255,.5)" stroke-width="1"/><circle cx="307" cy="192" r="1" fill="rgba(255,255,255,.9)"/></g><g opacity="0.57"><circle cx="591" cy="267" r="13" fill="url(#fb)" stroke="rgba(255,255,255,.5)" stroke-width="1"/><circle cx="587" cy="263" r="2" fill="rgba(255,255,255,.9)"/></g><g opacity="0.85"><circle cx="399" cy="380" r="8" fill="url(#fb)" stroke="rgba(255,255,255,.5)" stroke-width="1"/></g><g opacity="0.51"><circle cx="472" cy="367" r="11" fill="url(#fb)" stroke="rgba(255,255,255,.5)" stroke-width="1"/></g><g opacity="0.53"><circle cx="398" cy="268" r="10" fill="url(#fb)" stroke="rgba(255,255,255,.5)" stroke-width="1"/></g><g opacity="0.84"><circle cx="489" cy="329" r="12" fill="url(#fb)" stroke="rgba(255,255,255,.5)" stroke-width="1"/></g><g opacity="0.49"><circle cx="365" cy="407" r="12" fill="url(#fb)" stroke="rgba(255,255,255,.5)" stroke-width="1"/><circle cx="362" cy="403" r="2" fill="rgba(255,255,255,.9)"/></g><g opacity="0.74"><circle cx="513" cy="404" r="13" fill="url(#fb)" stroke="rgba(255,255,255,.5)" stroke-width="1"/><circle cx="509" cy="399" r="2" fill="rgba(255,255,255,.9)"/></g><g opacity="0.52"><circle cx="383" cy="201" r="15" fill="url(#fb)" stroke="rgba(255,255,255,.5)" stroke-width="1"/></g><g opacity="0.37"><circle cx="459" cy="324" r="6" fill="url(#fb)" stroke="rgba(255,255,255,.5)" stroke-width="1"/></g><g opacity="0.72"><circle cx="445" cy="326" r="17" fill="url(#fb)" stroke="rgba(255,255,255,.5)" stroke-width="1"/></g><g opacity="0.42"><circle cx="538" cy="330" r="17" fill="url(#fb)" stroke="rgba(255,255,255,.5)" stroke-width="1"/></g><g opacity="0.54"><circle cx="500" cy="219" r="8" fill="url(#fb)" stroke="rgba(255,255,255,.5)" stroke-width="1"/></g><g opacity="0.89"><circle cx="447" cy="347" r="12" fill="url(#fb)" stroke="rgba(255,255,255,.5)" stroke-width="1"/></g><g opacity="0.53"><circle cx="348" cy="333" r="8" fill="url(#fb)" stroke="rgba(255,255,255,.5)" stroke-width="1"/></g><g opacity="0.66"><circle cx="603" cy="320" r="12" fill="url(#fb)" stroke="rgba(255,255,255,.5)" stroke-width="1"/></g><g opacity="0.42"><circle cx="401" cy="201" r="18" fill="url(#fb)" stroke="rgba(255,255,255,.5)" stroke-width="1"/></g><g opacity="0.52"><circle cx="555" cy="300" r="7" fill="url(#fb)" stroke="rgba(255,255,255,.5)" stroke-width="1"/><circle cx="552" cy="297" r="1" fill="rgba(255,255,255,.9)"/></g><g opacity="0.4"><circle cx="234" cy="410" r="46" fill="url(#fb)" stroke="rgba(255,255,255,.5)" stroke-width="1"/><circle cx="220" cy="393" r="7" fill="rgba(255,255,255,.9)"/></g><g opacity="0.63"><circle cx="532" cy="295" r="7" fill="url(#fb)" stroke="rgba(255,255,255,.5)" stroke-width="1"/></g><g opacity="0.51"><circle cx="335" cy="232" r="11" fill="url(#fb)" stroke="rgba(255,255,255,.5)" stroke-width="1"/></g><g opacity="0.51"><circle cx="372" cy="302" r="15" fill="url(#fb)" stroke="rgba(255,255,255,.5)" stroke-width="1"/><circle cx="367" cy="297" r="2" fill="rgba(255,255,255,.9)"/></g><g opacity="0.46"><circle cx="311" cy="278" r="6" fill="url(#fb)" stroke="rgba(255,255,255,.5)" stroke-width="1"/><circle cx="309" cy="276" r="1" fill="rgba(255,255,255,.9)"/></g><g opacity="0.81"><circle cx="534" cy="400" r="8" fill="url(#fb)" stroke="rgba(255,255,255,.5)" stroke-width="1"/></g><g opacity="0.36"><circle cx="349" cy="189" r="7" fill="url(#fb)" stroke="rgba(255,255,255,.5)" stroke-width="1"/><circle cx="346" cy="187" r="1" fill="rgba(255,255,255,.9)"/></g><g opacity="0.89"><circle cx="466" cy="352" r="6" fill="url(#fb)" stroke="rgba(255,255,255,.5)" stroke-width="1"/></g><g opacity="0.8"><circle cx="304" cy="405" r="11" fill="url(#fb)" stroke="rgba(255,255,255,.5)" stroke-width="1"/></g><g opacity="0.38"><circle cx="516" cy="432" r="5" fill="url(#fb)" stroke="rgba(255,255,255,.5)" stroke-width="1"/></g><g opacity="0.67"><circle cx="533" cy="240" r="12" fill="url(#fb)" stroke="rgba(255,255,255,.5)" stroke-width="1"/><circle cx="530" cy="236" r="2" fill="rgba(255,255,255,.9)"/></g><g opacity="0.46"><circle cx="498" cy="400" r="8" fill="url(#fb)" stroke="rgba(255,255,255,.5)" stroke-width="1"/><circle cx="496" cy="397" r="1" fill="rgba(255,255,255,.9)"/></g><g opacity="0.56"><circle cx="387" cy="339" r="16" fill="url(#fb)" stroke="rgba(255,255,255,.5)" stroke-width="1"/><circle cx="382" cy="333" r="3" fill="rgba(255,255,255,.9)"/></g><g opacity="0.82"><circle cx="449" cy="388" r="8" fill="url(#fb)" stroke="rgba(255,255,255,.5)" stroke-width="1"/><circle cx="446" cy="385" r="1" fill="rgba(255,255,255,.9)"/></g><g opacity="0.77"><circle cx="404" cy="250" r="8" fill="url(#fb)" stroke="rgba(255,255,255,.5)" stroke-width="1"/></g><g opacity="0.61"><circle cx="454" cy="326" r="14" fill="url(#fb)" stroke="rgba(255,255,255,.5)" stroke-width="1"/><circle cx="450" cy="321" r="2" fill="rgba(255,255,255,.9)"/></g><g opacity="0.89"><circle cx="351" cy="368" r="17" fill="url(#fb)" stroke="rgba(255,255,255,.5)" stroke-width="1"/></g><g opacity="0.59"><circle cx="418" cy="348" r="15" fill="url(#fb)" stroke="rgba(255,255,255,.5)" stroke-width="1"/></g><g opacity="0.72"><circle cx="451" cy="170" r="6" fill="url(#fb)" stroke="rgba(255,255,255,.5)" stroke-width="1"/><circle cx="449" cy="168" r="1" fill="rgba(255,255,255,.9)"/></g><g opacity="0.71"><circle cx="424" cy="299" r="15" fill="url(#fb)" stroke="rgba(255,255,255,.5)" stroke-width="1"/></g><g opacity="0.84"><circle cx="286" cy="419" r="15" fill="url(#fb)" stroke="rgba(255,255,255,.5)" stroke-width="1"/></g><g opacity="0.65"><circle cx="566" cy="364" r="7" fill="url(#fb)" stroke="rgba(255,255,255,.5)" stroke-width="1"/></g><g opacity="0.83"><circle cx="478" cy="191" r="11" fill="url(#fb)" stroke="rgba(255,255,255,.5)" stroke-width="1"/></g><g opacity="0.55"><circle cx="407" cy="374" r="10" fill="url(#fb)" stroke="rgba(255,255,255,.5)" stroke-width="1"/></g><g opacity="0.37"><circle cx="431" cy="433" r="12" fill="url(#fb)" stroke="rgba(255,255,255,.5)" stroke-width="1"/><circle cx="427" cy="428" r="2" fill="rgba(255,255,255,.9)"/></g><g opacity="0.46"><circle cx="587" cy="341" r="7" fill="url(#fb)" stroke="rgba(255,255,255,.5)" stroke-width="1"/><circle cx="585" cy="338" r="1" fill="rgba(255,255,255,.9)"/></g><g opacity="0.46"><circle cx="397" cy="225" r="12" fill="url(#fb)" stroke="rgba(255,255,255,.5)" stroke-width="1"/></g><g opacity="0.79"><circle cx="473" cy="241" r="13" fill="url(#fb)" stroke="rgba(255,255,255,.5)" stroke-width="1"/></g><g opacity="0.37"><circle cx="291" cy="293" r="12" fill="url(#fb)" stroke="rgba(255,255,255,.5)" stroke-width="1"/></g><g opacity="0.71"><circle cx="426" cy="379" r="10" fill="url(#fb)" stroke="rgba(255,255,255,.5)" stroke-width="1"/></g><g opacity="0.37"><circle cx="392" cy="231" r="9" fill="url(#fb)" stroke="rgba(255,255,255,.5)" stroke-width="1"/></g><g opacity="0.43"><circle cx="555" cy="315" r="16" fill="url(#fb)" stroke="rgba(255,255,255,.5)" stroke-width="1"/></g><g opacity="0.63"><circle cx="344" cy="379" r="13" fill="url(#fb)" stroke="rgba(255,255,255,.5)" stroke-width="1"/></g><g opacity="0.42"><circle cx="484" cy="345" r="11" fill="url(#fb)" stroke="rgba(255,255,255,.5)" stroke-width="1"/><circle cx="481" cy="341" r="2" fill="rgba(255,255,255,.9)"/></g><g opacity="0.42"><circle cx="445" cy="292" r="41" fill="url(#fb)" stroke="rgba(255,255,255,.5)" stroke-width="1"/><circle cx="432" cy="277" r="7" fill="rgba(255,255,255,.9)"/></g><g opacity="0.85"><circle cx="563" cy="334" r="7" fill="url(#fb)" stroke="rgba(255,255,255,.5)" stroke-width="1"/></g><g opacity="0.36"><circle cx="282" cy="407" r="17" fill="url(#fb)" stroke="rgba(255,255,255,.5)" stroke-width="1"/></g><g opacity="0.77"><circle cx="523" cy="380" r="16" fill="url(#fb)" stroke="rgba(255,255,255,.5)" stroke-width="1"/></g><g opacity="0.49"><circle cx="454" cy="222" r="14" fill="url(#fb)" stroke="rgba(255,255,255,.5)" stroke-width="1"/></g><g opacity="0.35"><circle cx="495" cy="315" r="14" fill="url(#fb)" stroke="rgba(255,255,255,.5)" stroke-width="1"/></g><g opacity="0.7"><circle cx="311" cy="341" r="16" fill="url(#fb)" stroke="rgba(255,255,255,.5)" stroke-width="1"/></g><g opacity="0.84"><circle cx="539" cy="360" r="6" fill="url(#fb)" stroke="rgba(255,255,255,.5)" stroke-width="1"/></g><g opacity="0.76"><circle cx="371" cy="180" r="6" fill="url(#fb)" stroke="rgba(255,255,255,.5)" stroke-width="1"/></g><g opacity="0.37"><circle cx="437" cy="315" r="8" fill="url(#fb)" stroke="rgba(255,255,255,.5)" stroke-width="1"/></g><g opacity="0.65"><circle cx="469" cy="448" r="11" fill="url(#fb)" stroke="rgba(255,255,255,.5)" stroke-width="1"/><circle cx="465" cy="444" r="2" fill="rgba(255,255,255,.9)"/></g><g opacity="0.82"><circle cx="537" cy="327" r="9" fill="url(#fb)" stroke="rgba(255,255,255,.5)" stroke-width="1"/></g><g opacity="0.8"><circle cx="484" cy="125" r="11" fill="url(#fb)" stroke="rgba(255,255,255,.5)" stroke-width="1"/></g><g opacity="0.45"><circle cx="455" cy="362" r="8" fill="url(#fb)" stroke="rgba(255,255,255,.5)" stroke-width="1"/></g><g opacity="0.81"><circle cx="405" cy="478" r="8" fill="url(#fb)" stroke="rgba(255,255,255,.5)" stroke-width="1"/></g><g opacity="0.89"><circle cx="407" cy="341" r="9" fill="url(#fb)" stroke="rgba(255,255,255,.5)" stroke-width="1"/><circle cx="404" cy="338" r="1" fill="rgba(255,255,255,.9)"/></g><g opacity="0.65"><circle cx="293" cy="200" r="12" fill="url(#fb)" stroke="rgba(255,255,255,.5)" stroke-width="1"/></g><g opacity="0.6"><circle cx="510" cy="332" r="17" fill="url(#fb)" stroke="rgba(255,255,255,.5)" stroke-width="1"/><circle cx="505" cy="326" r="3" fill="rgba(255,255,255,.9)"/></g><g opacity="0.72"><circle cx="272" cy="311" r="7" fill="url(#fb)" stroke="rgba(255,255,255,.5)" stroke-width="1"/></g><g opacity="0.89"><circle cx="475" cy="367" r="15" fill="url(#fb)" stroke="rgba(255,255,255,.5)" stroke-width="1"/></g><g opacity="0.5"><circle cx="396" cy="217" r="16" fill="url(#fb)" stroke="rgba(255,255,255,.5)" stroke-width="1"/><circle cx="391" cy="211" r="3" fill="rgba(255,255,255,.9)"/></g><g opacity="0.41"><circle cx="479" cy="322" r="11" fill="url(#fb)" stroke="rgba(255,255,255,.5)" stroke-width="1"/></g><g opacity="0.88"><circle cx="392" cy="348" r="16" fill="url(#fb)" stroke="rgba(255,255,255,.5)" stroke-width="1"/><circle cx="387" cy="342" r="3" fill="rgba(255,255,255,.9)"/></g><g opacity="0.83"><circle cx="392" cy="389" r="14" fill="url(#fb)" stroke="rgba(255,255,255,.5)" stroke-width="1"/><circle cx="387" cy="383" r="2" fill="rgba(255,255,255,.9)"/></g><g opacity="0.45"><circle cx="356" cy="263" r="15" fill="url(#fb)" stroke="rgba(255,255,255,.5)" stroke-width="1"/></g><g opacity="0.68"><circle cx="490" cy="425" r="36" fill="url(#fb)" stroke="rgba(255,255,255,.5)" stroke-width="1"/><circle cx="479" cy="412" r="6" fill="rgba(255,255,255,.9)"/></g><g opacity="0.81"><circle cx="237" cy="459" r="12" fill="url(#fb)" stroke="rgba(255,255,255,.5)" stroke-width="1"/><circle cx="233" cy="455" r="2" fill="rgba(255,255,255,.9)"/></g><g opacity="0.88"><circle cx="558" cy="274" r="9" fill="url(#fb)" stroke="rgba(255,255,255,.5)" stroke-width="1"/></g><g opacity="0.42"><circle cx="271" cy="246" r="7" fill="url(#fb)" stroke="rgba(255,255,255,.5)" stroke-width="1"/><circle cx="269" cy="243" r="1" fill="rgba(255,255,255,.9)"/></g><g opacity="0.87"><circle cx="532" cy="328" r="17" fill="url(#fb)" stroke="rgba(255,255,255,.5)" stroke-width="1"/><circle cx="527" cy="322" r="3" fill="rgba(255,255,255,.9)"/></g><g opacity="0.65"><circle cx="237" cy="405" r="35" fill="url(#fb)" stroke="rgba(255,255,255,.5)" stroke-width="1"/><circle cx="226" cy="392" r="6" fill="rgba(255,255,255,.9)"/></g><g opacity="0.56"><circle cx="572" cy="423" r="43" fill="url(#fb)" stroke="rgba(255,255,255,.5)" stroke-width="1"/><circle cx="558" cy="407" r="7" fill="rgba(255,255,255,.9)"/></g><g opacity="0.65"><circle cx="420" cy="205" r="10" fill="url(#fb)" stroke="rgba(255,255,255,.5)" stroke-width="1"/></g><g opacity="0.89"><circle cx="581" cy="342" r="10" fill="url(#fb)" stroke="rgba(255,255,255,.5)" stroke-width="1"/></g><g opacity="0.72"><circle cx="328" cy="284" r="8" fill="url(#fb)" stroke="rgba(255,255,255,.5)" stroke-width="1"/></g><g opacity="0.35"><circle cx="431" cy="403" r="15" fill="url(#fb)" stroke="rgba(255,255,255,.5)" stroke-width="1"/></g><g opacity="0.65"><circle cx="391" cy="166" r="15" fill="url(#fb)" stroke="rgba(255,255,255,.5)" stroke-width="1"/><circle cx="387" cy="161" r="2" fill="rgba(255,255,255,.9)"/></g><g opacity="0.64"><circle cx="569" cy="288" r="33" fill="url(#fb)" stroke="rgba(255,255,255,.5)" stroke-width="1"/><circle cx="559" cy="277" r="5" fill="rgba(255,255,255,.9)"/></g><g opacity="0.56"><circle cx="294" cy="443" r="8" fill="url(#fb)" stroke="rgba(255,255,255,.5)" stroke-width="1"/></g><g opacity="0.42"><circle cx="512" cy="383" r="8" fill="url(#fb)" stroke="rgba(255,255,255,.5)" stroke-width="1"/></g><g opacity="0.63"><circle cx="442" cy="194" r="16" fill="url(#fb)" stroke="rgba(255,255,255,.5)" stroke-width="1"/></g><g opacity="0.76"><circle cx="553" cy="291" r="10" fill="url(#fb)" stroke="rgba(255,255,255,.5)" stroke-width="1"/><circle cx="550" cy="288" r="2" fill="rgba(255,255,255,.9)"/></g><g opacity="0.64"><circle cx="305" cy="469" r="15" fill="url(#fb)" stroke="rgba(255,255,255,.5)" stroke-width="1"/><circle cx="300" cy="463" r="2" fill="rgba(255,255,255,.9)"/></g><g opacity="0.71"><circle cx="510" cy="362" r="14" fill="url(#fb)" stroke="rgba(255,255,255,.5)" stroke-width="1"/></g><g opacity="0.6"><circle cx="503" cy="233" r="9" fill="url(#fb)" stroke="rgba(255,255,255,.5)" stroke-width="1"/><circle cx="500" cy="230" r="1" fill="rgba(255,255,255,.9)"/></g><g opacity="0.38"><circle cx="348" cy="428" r="6" fill="url(#fb)" stroke="rgba(255,255,255,.5)" stroke-width="1"/></g><g opacity="0.77"><circle cx="310" cy="314" r="14" fill="url(#fb)" stroke="rgba(255,255,255,.5)" stroke-width="1"/></g><g opacity="0.69"><circle cx="519" cy="270" r="12" fill="url(#fb)" stroke="rgba(255,255,255,.5)" stroke-width="1"/></g><g opacity="0.62"><circle cx="429" cy="290" r="16" fill="url(#fb)" stroke="rgba(255,255,255,.5)" stroke-width="1"/></g><g opacity="0.48"><circle cx="390" cy="324" r="9" fill="url(#fb)" stroke="rgba(255,255,255,.5)" stroke-width="1"/></g><g opacity="0.44"><circle cx="342" cy="349" r="32" fill="url(#fb)" stroke="rgba(255,255,255,.5)" stroke-width="1"/><circle cx="332" cy="338" r="5" fill="rgba(255,255,255,.9)"/></g><g opacity="0.86"><circle cx="555" cy="391" r="12" fill="url(#fb)" stroke="rgba(255,255,255,.5)" stroke-width="1"/><circle cx="551" cy="386" r="2" fill="rgba(255,255,255,.9)"/></g><g opacity="0.79"><circle cx="459" cy="208" r="16" fill="url(#fb)" stroke="rgba(255,255,255,.5)" stroke-width="1"/></g><g opacity="0.37"><circle cx="568" cy="457" r="11" fill="url(#fb)" stroke="rgba(255,255,255,.5)" stroke-width="1"/></g><g opacity="0.48"><circle cx="419" cy="400" r="9" fill="url(#fb)" stroke="rgba(255,255,255,.5)" stroke-width="1"/></g><g opacity="0.46"><circle cx="431" cy="331" r="15" fill="url(#fb)" stroke="rgba(255,255,255,.5)" stroke-width="1"/></g><g opacity="0.53"><circle cx="393" cy="205" r="15" fill="url(#fb)" stroke="rgba(255,255,255,.5)" stroke-width="1"/><circle cx="388" cy="199" r="2" fill="rgba(255,255,255,.9)"/></g><g opacity="0.81"><circle cx="418" cy="366" r="15" fill="url(#fb)" stroke="rgba(255,255,255,.5)" stroke-width="1"/></g><g opacity="0.85"><circle cx="306" cy="367" r="18" fill="url(#fb)" stroke="rgba(255,255,255,.5)" stroke-width="1"/></g><g opacity="0.5"><circle cx="429" cy="286" r="8" fill="url(#fb)" stroke="rgba(255,255,255,.5)" stroke-width="1"/></g><g opacity="0.52"><circle cx="447" cy="259" r="11" fill="url(#fb)" stroke="rgba(255,255,255,.5)" stroke-width="1"/><circle cx="444" cy="255" r="2" fill="rgba(255,255,255,.9)"/></g><g opacity="0.88"><circle cx="426" cy="314" r="14" fill="url(#fb)" stroke="rgba(255,255,255,.5)" stroke-width="1"/></g><g opacity="0.55"><circle cx="351" cy="349" r="17" fill="url(#fb)" stroke="rgba(255,255,255,.5)" stroke-width="1"/><circle cx="345" cy="343" r="3" fill="rgba(255,255,255,.9)"/></g><g opacity="0.59"><circle cx="576" cy="336" r="6" fill="url(#fb)" stroke="rgba(255,255,255,.5)" stroke-width="1"/></g><g opacity="0.83"><circle cx="498" cy="213" r="11" fill="url(#fb)" stroke="rgba(255,255,255,.5)" stroke-width="1"/><circle cx="495" cy="209" r="2" fill="rgba(255,255,255,.9)"/></g><g opacity="0.76"><circle cx="587" cy="400" r="10" fill="url(#fb)" stroke="rgba(255,255,255,.5)" stroke-width="1"/></g><g opacity="0.66"><circle cx="277" cy="453" r="14" fill="url(#fb)" stroke="rgba(255,255,255,.5)" stroke-width="1"/></g><g opacity="0.37"><circle cx="540" cy="394" r="11" fill="url(#fb)" stroke="rgba(255,255,255,.5)" stroke-width="1"/></g><g opacity="0.63"><circle cx="448" cy="274" r="6" fill="url(#fb)" stroke="rgba(255,255,255,.5)" stroke-width="1"/><circle cx="447" cy="272" r="1" fill="rgba(255,255,255,.9)"/></g><g opacity="0.81"><circle cx="485" cy="261" r="10" fill="url(#fb)" stroke="rgba(255,255,255,.5)" stroke-width="1"/><circle cx="482" cy="257" r="2" fill="rgba(255,255,255,.9)"/></g><g opacity="0.39"><circle cx="153" cy="415" r="17" fill="url(#fb)" stroke="rgba(255,255,255,.5)" stroke-width="1"/><circle cx="148" cy="409" r="3" fill="rgba(255,255,255,.9)"/></g><g opacity="0.8"><circle cx="393" cy="309" r="13" fill="url(#fb)" stroke="rgba(255,255,255,.5)" stroke-width="1"/></g><g opacity="0.38"><circle cx="421" cy="307" r="17" fill="url(#fb)" stroke="rgba(255,255,255,.5)" stroke-width="1"/></g><g opacity="0.81"><circle cx="586" cy="456" r="6" fill="url(#fb)" stroke="rgba(255,255,255,.5)" stroke-width="1"/><circle cx="584" cy="454" r="1" fill="rgba(255,255,255,.9)"/></g><g opacity="0.61"><circle cx="235" cy="335" r="9" fill="url(#fb)" stroke="rgba(255,255,255,.5)" stroke-width="1"/></g><g opacity="0.67"><circle cx="453" cy="392" r="41" fill="url(#fb)" stroke="rgba(255,255,255,.5)" stroke-width="1"/><circle cx="440" cy="377" r="7" fill="rgba(255,255,255,.9)"/></g><g opacity="0.53"><circle cx="363" cy="263" r="14" fill="url(#fb)" stroke="rgba(255,255,255,.5)" stroke-width="1"/><circle cx="359" cy="258" r="2" fill="rgba(255,255,255,.9)"/></g><g opacity="0.89"><circle cx="495" cy="380" r="17" fill="url(#fb)" stroke="rgba(255,255,255,.5)" stroke-width="1"/></g><g opacity="0.8"><circle cx="324" cy="367" r="6" fill="url(#fb)" stroke="rgba(255,255,255,.5)" stroke-width="1"/></g><g opacity="0.85"><circle cx="549" cy="404" r="15" fill="url(#fb)" stroke="rgba(255,255,255,.5)" stroke-width="1"/></g><g opacity="0.87"><circle cx="627" cy="280" r="17" fill="url(#fb)" stroke="rgba(255,255,255,.5)" stroke-width="1"/></g><g opacity="0.43"><circle cx="398" cy="306" r="9" fill="url(#fb)" stroke="rgba(255,255,255,.5)" stroke-width="1"/></g><g opacity="0.37"><circle cx="411" cy="362" r="10" fill="url(#fb)" stroke="rgba(255,255,255,.5)" stroke-width="1"/><circle cx="408" cy="359" r="2" fill="rgba(255,255,255,.9)"/></g><g opacity="0.87"><circle cx="562" cy="377" r="10" fill="url(#fb)" stroke="rgba(255,255,255,.5)" stroke-width="1"/></g><g opacity="0.75"><circle cx="438" cy="188" r="7" fill="url(#fb)" stroke="rgba(255,255,255,.5)" stroke-width="1"/></g><g opacity="0.64"><circle cx="545" cy="410" r="18" fill="url(#fb)" stroke="rgba(255,255,255,.5)" stroke-width="1"/></g><g opacity="0.41"><circle cx="486" cy="312" r="18" fill="url(#fb)" stroke="rgba(255,255,255,.5)" stroke-width="1"/><circle cx="480" cy="305" r="3" fill="rgba(255,255,255,.9)"/></g><g opacity="0.85"><circle cx="465" cy="351" r="6" fill="url(#fb)" stroke="rgba(255,255,255,.5)" stroke-width="1"/><circle cx="463" cy="349" r="1" fill="rgba(255,255,255,.9)"/></g><g opacity="0.43"><circle cx="363" cy="253" r="27" fill="url(#fb)" stroke="rgba(255,255,255,.5)" stroke-width="1"/><circle cx="355" cy="243" r="4" fill="rgba(255,255,255,.9)"/></g><g opacity="0.51"><circle cx="340" cy="317" r="10" fill="url(#fb)" stroke="rgba(255,255,255,.5)" stroke-width="1"/></g><g opacity="0.66"><circle cx="303" cy="272" r="12" fill="url(#fb)" stroke="rgba(255,255,255,.5)" stroke-width="1"/><circle cx="299" cy="268" r="2" fill="rgba(255,255,255,.9)"/></g><g opacity="0.57"><circle cx="396" cy="330" r="14" fill="url(#fb)" stroke="rgba(255,255,255,.5)" stroke-width="1"/><circle cx="392" cy="325" r="2" fill="rgba(255,255,255,.9)"/></g><g opacity="0.36"><circle cx="477" cy="253" r="14" fill="url(#fb)" stroke="rgba(255,255,255,.5)" stroke-width="1"/></g><g opacity="0.88"><circle cx="496" cy="336" r="7" fill="url(#fb)" stroke="rgba(255,255,255,.5)" stroke-width="1"/><circle cx="494" cy="333" r="1" fill="rgba(255,255,255,.9)"/></g><g opacity="0.59"><circle cx="193" cy="396" r="10" fill="url(#fb)" stroke="rgba(255,255,255,.5)" stroke-width="1"/></g><g opacity="0.65"><circle cx="480" cy="443" r="16" fill="url(#fb)" stroke="rgba(255,255,255,.5)" stroke-width="1"/><circle cx="474" cy="437" r="3" fill="rgba(255,255,255,.9)"/></g><g opacity="0.78"><circle cx="401" cy="135" r="5" fill="url(#fb)" stroke="rgba(255,255,255,.5)" stroke-width="1"/><circle cx="399" cy="133" r="1" fill="rgba(255,255,255,.9)"/></g><g opacity="0.69"><circle cx="553" cy="412" r="17" fill="url(#fb)" stroke="rgba(255,255,255,.5)" stroke-width="1"/><circle cx="547" cy="406" r="3" fill="rgba(255,255,255,.9)"/></g><g opacity="0.53"><circle cx="344" cy="326" r="8" fill="url(#fb)" stroke="rgba(255,255,255,.5)" stroke-width="1"/><circle cx="342" cy="323" r="1" fill="rgba(255,255,255,.9)"/></g><g opacity="0.56"><circle cx="435" cy="374" r="13" fill="url(#fb)" stroke="rgba(255,255,255,.5)" stroke-width="1"/></g><g opacity="0.78"><circle cx="546" cy="293" r="10" fill="url(#fb)" stroke="rgba(255,255,255,.5)" stroke-width="1"/></g><g opacity="0.9"><circle cx="544" cy="320" r="8" fill="url(#fb)" stroke="rgba(255,255,255,.5)" stroke-width="1"/></g><g opacity="0.65"><circle cx="345" cy="366" r="14" fill="url(#fb)" stroke="rgba(255,255,255,.5)" stroke-width="1"/></g><g opacity="0.59"><circle cx="497" cy="450" r="14" fill="url(#fb)" stroke="rgba(255,255,255,.5)" stroke-width="1"/></g><g opacity="0.47"><circle cx="443" cy="152" r="14" fill="url(#fb)" stroke="rgba(255,255,255,.5)" stroke-width="1"/></g><g opacity="0.58"><circle cx="479" cy="381" r="7" fill="url(#fb)" stroke="rgba(255,255,255,.5)" stroke-width="1"/></g><g opacity="0.48"><circle cx="420" cy="294" r="10" fill="url(#fb)" stroke="rgba(255,255,255,.5)" stroke-width="1"/></g><g opacity="0.52"><circle cx="596" cy="404" r="5" fill="url(#fb)" stroke="rgba(255,255,255,.5)" stroke-width="1"/><circle cx="595" cy="402" r="1" fill="rgba(255,255,255,.9)"/></g><g opacity="0.68"><circle cx="519" cy="288" r="6" fill="url(#fb)" stroke="rgba(255,255,255,.5)" stroke-width="1"/><circle cx="517" cy="286" r="1" fill="rgba(255,255,255,.9)"/></g><g opacity="0.66"><circle cx="438" cy="347" r="8" fill="url(#fb)" stroke="rgba(255,255,255,.5)" stroke-width="1"/></g><g opacity="0.81"><circle cx="312" cy="394" r="8" fill="url(#fb)" stroke="rgba(255,255,255,.5)" stroke-width="1"/></g><g opacity="0.55"><circle cx="537" cy="416" r="11" fill="url(#fb)" stroke="rgba(255,255,255,.5)" stroke-width="1"/><circle cx="533" cy="412" r="2" fill="rgba(255,255,255,.9)"/></g><g opacity="0.41"><circle cx="553" cy="261" r="9" fill="url(#fb)" stroke="rgba(255,255,255,.5)" stroke-width="1"/></g><g opacity="0.59"><circle cx="429" cy="325" r="6" fill="url(#fb)" stroke="rgba(255,255,255,.5)" stroke-width="1"/></g><g opacity="0.8"><circle cx="300" cy="316" r="6" fill="url(#fb)" stroke="rgba(255,255,255,.5)" stroke-width="1"/><circle cx="298" cy="314" r="1" fill="rgba(255,255,255,.9)"/></g><g opacity="0.56"><circle cx="619" cy="369" r="16" fill="url(#fb)" stroke="rgba(255,255,255,.5)" stroke-width="1"/></g><g opacity="0.88"><circle cx="516" cy="164" r="17" fill="url(#fb)" stroke="rgba(255,255,255,.5)" stroke-width="1"/></g><g opacity="0.58"><circle cx="570" cy="284" r="10" fill="url(#fb)" stroke="rgba(255,255,255,.5)" stroke-width="1"/><circle cx="567" cy="280" r="2" fill="rgba(255,255,255,.9)"/></g><g opacity="0.36"><circle cx="264" cy="353" r="33" fill="url(#fb)" stroke="rgba(255,255,255,.5)" stroke-width="1"/><circle cx="254" cy="342" r="5" fill="rgba(255,255,255,.9)"/></g><g opacity="0.87"><circle cx="436" cy="320" r="7" fill="url(#fb)" stroke="rgba(255,255,255,.5)" stroke-width="1"/><circle cx="434" cy="318" r="1" fill="rgba(255,255,255,.9)"/></g><g opacity="0.79"><circle cx="454" cy="221" r="14" fill="url(#fb)" stroke="rgba(255,255,255,.5)" stroke-width="1"/><circle cx="449" cy="216" r="2" fill="rgba(255,255,255,.9)"/></g><g opacity="0.82"><circle cx="432" cy="319" r="6" fill="url(#fb)" stroke="rgba(255,255,255,.5)" stroke-width="1"/></g><g opacity="0.48"><circle cx="272" cy="414" r="12" fill="url(#fb)" stroke="rgba(255,255,255,.5)" stroke-width="1"/></g><g opacity="0.81"><circle cx="551" cy="331" r="14" fill="url(#fb)" stroke="rgba(255,255,255,.5)" stroke-width="1"/></g><g opacity="0.72"><circle cx="412" cy="326" r="6" fill="url(#fb)" stroke="rgba(255,255,255,.5)" stroke-width="1"/></g><g opacity="0.58"><circle cx="610" cy="326" r="9" fill="url(#fb)" stroke="rgba(255,255,255,.5)" stroke-width="1"/></g><g opacity="0.88"><circle cx="240" cy="388" r="14" fill="url(#fb)" stroke="rgba(255,255,255,.5)" stroke-width="1"/><circle cx="236" cy="383" r="2" fill="rgba(255,255,255,.9)"/></g><g opacity="0.58"><circle cx="506" cy="274" r="9" fill="url(#fb)" stroke="rgba(255,255,255,.5)" stroke-width="1"/></g><g opacity="0.89"><circle cx="541" cy="202" r="11" fill="url(#fb)" stroke="rgba(255,255,255,.5)" stroke-width="1"/></g><g opacity="0.64"><circle cx="640" cy="295" r="6" fill="url(#fb)" stroke="rgba(255,255,255,.5)" stroke-width="1"/></g><g opacity="0.61"><circle cx="311" cy="357" r="16" fill="url(#fb)" stroke="rgba(255,255,255,.5)" stroke-width="1"/></g><g opacity="0.67"><circle cx="464" cy="306" r="12" fill="url(#fb)" stroke="rgba(255,255,255,.5)" stroke-width="1"/></g><g opacity="0.68"><circle cx="425" cy="255" r="7" fill="url(#fb)" stroke="rgba(255,255,255,.5)" stroke-width="1"/></g><g opacity="0.87"><circle cx="400" cy="366" r="9" fill="url(#fb)" stroke="rgba(255,255,255,.5)" stroke-width="1"/><circle cx="397" cy="363" r="1" fill="rgba(255,255,255,.9)"/></g><g opacity="0.53"><circle cx="274" cy="229" r="9" fill="url(#fb)" stroke="rgba(255,255,255,.5)" stroke-width="1"/></g><g opacity="0.8"><circle cx="520" cy="284" r="14" fill="url(#fb)" stroke="rgba(255,255,255,.5)" stroke-width="1"/></g><g opacity="0.42"><circle cx="480" cy="200" r="12" fill="url(#fb)" stroke="rgba(255,255,255,.5)" stroke-width="1"/></g><g opacity="0.4"><circle cx="383" cy="335" r="16" fill="url(#fb)" stroke="rgba(255,255,255,.5)" stroke-width="1"/><circle cx="378" cy="329" r="3" fill="rgba(255,255,255,.9)"/></g><g opacity="0.55"><circle cx="357" cy="345" r="12" fill="url(#fb)" stroke="rgba(255,255,255,.5)" stroke-width="1"/></g><g opacity="0.45"><circle cx="582" cy="293" r="27" fill="url(#fb)" stroke="rgba(255,255,255,.5)" stroke-width="1"/><circle cx="573" cy="283" r="4" fill="rgba(255,255,255,.9)"/></g><g opacity="0.7"><circle cx="473" cy="306" r="6" fill="url(#fb)" stroke="rgba(255,255,255,.5)" stroke-width="1"/><circle cx="471" cy="304" r="1" fill="rgba(255,255,255,.9)"/></g><g opacity="0.62"><circle cx="439" cy="374" r="14" fill="url(#fb)" stroke="rgba(255,255,255,.5)" stroke-width="1"/></g><g opacity="0.48"><circle cx="318" cy="347" r="12" fill="url(#fb)" stroke="rgba(255,255,255,.5)" stroke-width="1"/></g><g opacity="0.63"><circle cx="533" cy="382" r="11" fill="url(#fb)" stroke="rgba(255,255,255,.5)" stroke-width="1"/></g><g opacity="0.67"><circle cx="540" cy="213" r="9" fill="url(#fb)" stroke="rgba(255,255,255,.5)" stroke-width="1"/></g><g opacity="0.53"><circle cx="516" cy="281" r="8" fill="url(#fb)" stroke="rgba(255,255,255,.5)" stroke-width="1"/></g><g opacity="0.36"><circle cx="504" cy="347" r="17" fill="url(#fb)" stroke="rgba(255,255,255,.5)" stroke-width="1"/><circle cx="499" cy="341" r="3" fill="rgba(255,255,255,.9)"/></g><g opacity="0.89"><circle cx="594" cy="315" r="9" fill="url(#fb)" stroke="rgba(255,255,255,.5)" stroke-width="1"/></g><g opacity="0.36"><circle cx="533" cy="192" r="15" fill="url(#fb)" stroke="rgba(255,255,255,.5)" stroke-width="1"/></g><g opacity="0.45"><circle cx="447" cy="415" r="13" fill="url(#fb)" stroke="rgba(255,255,255,.5)" stroke-width="1"/><circle cx="443" cy="410" r="2" fill="rgba(255,255,255,.9)"/></g><g opacity="0.57"><circle cx="365" cy="325" r="14" fill="url(#fb)" stroke="rgba(255,255,255,.5)" stroke-width="1"/></g><g opacity="0.52"><circle cx="430" cy="325" r="39" fill="url(#fb)" stroke="rgba(255,255,255,.5)" stroke-width="1"/><circle cx="418" cy="311" r="6" fill="rgba(255,255,255,.9)"/></g><g opacity="0.56"><circle cx="450" cy="249" r="17" fill="url(#fb)" stroke="rgba(255,255,255,.5)" stroke-width="1"/><circle cx="444" cy="243" r="3" fill="rgba(255,255,255,.9)"/></g><g opacity="0.79"><circle cx="625" cy="405" r="24" fill="url(#fb)" stroke="rgba(255,255,255,.5)" stroke-width="1"/><circle cx="618" cy="396" r="4" fill="rgba(255,255,255,.9)"/></g><g opacity="0.55"><circle cx="409" cy="263" r="15" fill="url(#fb)" stroke="rgba(255,255,255,.5)" stroke-width="1"/></g><g opacity="0.49"><circle cx="553" cy="418" r="8" fill="url(#fb)" stroke="rgba(255,255,255,.5)" stroke-width="1"/></g><g opacity="0.6"><circle cx="458" cy="223" r="39" fill="url(#fb)" stroke="rgba(255,255,255,.5)" stroke-width="1"/><circle cx="445" cy="209" r="6" fill="rgba(255,255,255,.9)"/></g><g opacity="0.67"><circle cx="497" cy="293" r="9" fill="url(#fb)" stroke="rgba(255,255,255,.5)" stroke-width="1"/><circle cx="494" cy="290" r="2" fill="rgba(255,255,255,.9)"/></g><g opacity="0.35"><circle cx="258" cy="376" r="6" fill="url(#fb)" stroke="rgba(255,255,255,.5)" stroke-width="1"/></g><g opacity="0.56"><circle cx="463" cy="442" r="13" fill="url(#fb)" stroke="rgba(255,255,255,.5)" stroke-width="1"/></g><g opacity="0.53"><circle cx="443" cy="223" r="9" fill="url(#fb)" stroke="rgba(255,255,255,.5)" stroke-width="1"/></g><g opacity="0.63"><circle cx="389" cy="309" r="6" fill="url(#fb)" stroke="rgba(255,255,255,.5)" stroke-width="1"/><circle cx="387" cy="307" r="1" fill="rgba(255,255,255,.9)"/></g><g opacity="0.36"><circle cx="406" cy="443" r="16" fill="url(#fb)" stroke="rgba(255,255,255,.5)" stroke-width="1"/></g><g opacity="0.73"><circle cx="490" cy="364" r="12" fill="url(#fb)" stroke="rgba(255,255,255,.5)" stroke-width="1"/><circle cx="486" cy="360" r="2" fill="rgba(255,255,255,.9)"/></g><g opacity="0.6"><circle cx="520" cy="228" r="18" fill="url(#fb)" stroke="rgba(255,255,255,.5)" stroke-width="1"/></g><g opacity="0.88"><circle cx="464" cy="302" r="11" fill="url(#fb)" stroke="rgba(255,255,255,.5)" stroke-width="1"/></g><g opacity="0.72"><circle cx="314" cy="394" r="16" fill="url(#fb)" stroke="rgba(255,255,255,.5)" stroke-width="1"/></g><g opacity="0.61"><circle cx="368" cy="372" r="45" fill="url(#fb)" stroke="rgba(255,255,255,.5)" stroke-width="1"/><circle cx="353" cy="356" r="7" fill="rgba(255,255,255,.9)"/></g><g opacity="0.75"><circle cx="481" cy="310" r="17" fill="url(#fb)" stroke="rgba(255,255,255,.5)" stroke-width="1"/></g><g opacity="0.49"><circle cx="494" cy="435" r="7" fill="url(#fb)" stroke="rgba(255,255,255,.5)" stroke-width="1"/></g><g opacity="0.66"><circle cx="306" cy="376" r="11" fill="url(#fb)" stroke="rgba(255,255,255,.5)" stroke-width="1"/><circle cx="303" cy="372" r="2" fill="rgba(255,255,255,.9)"/></g><g opacity="0.37"><circle cx="518" cy="434" r="12" fill="url(#fb)" stroke="rgba(255,255,255,.5)" stroke-width="1"/></g><g opacity="0.41"><circle cx="385" cy="222" r="10" fill="url(#fb)" stroke="rgba(255,255,255,.5)" stroke-width="1"/></g><g opacity="0.71"><circle cx="679" cy="361" r="17" fill="url(#fb)" stroke="rgba(255,255,255,.5)" stroke-width="1"/></g><g opacity="0.85"><circle cx="294" cy="381" r="36" fill="url(#fb)" stroke="rgba(255,255,255,.5)" stroke-width="1"/><circle cx="282" cy="368" r="6" fill="rgba(255,255,255,.9)"/></g><g opacity="0.71"><circle cx="583" cy="417" r="12" fill="url(#fb)" stroke="rgba(255,255,255,.5)" stroke-width="1"/><circle cx="579" cy="412" r="2" fill="rgba(255,255,255,.9)"/></g><g opacity="0.36"><circle cx="411" cy="301" r="7" fill="url(#fb)" stroke="rgba(255,255,255,.5)" stroke-width="1"/></g><g opacity="0.56"><circle cx="496" cy="378" r="8" fill="url(#fb)" stroke="rgba(255,255,255,.5)" stroke-width="1"/></g><g opacity="0.47"><circle cx="287" cy="366" r="16" fill="url(#fb)" stroke="rgba(255,255,255,.5)" stroke-width="1"/></g><g opacity="0.73"><circle cx="457" cy="337" r="14" fill="url(#fb)" stroke="rgba(255,255,255,.5)" stroke-width="1"/></g><g opacity="0.77"><circle cx="409" cy="190" r="15" fill="url(#fb)" stroke="rgba(255,255,255,.5)" stroke-width="1"/></g><g opacity="0.47"><circle cx="365" cy="385" r="13" fill="url(#fb)" stroke="rgba(255,255,255,.5)" stroke-width="1"/><circle cx="360" cy="380" r="2" fill="rgba(255,255,255,.9)"/></g><g opacity="0.77"><circle cx="284" cy="330" r="11" fill="url(#fb)" stroke="rgba(255,255,255,.5)" stroke-width="1"/></g><g opacity="0.77"><circle cx="510" cy="386" r="12" fill="url(#fb)" stroke="rgba(255,255,255,.5)" stroke-width="1"/></g><g opacity="0.83"><circle cx="433" cy="273" r="13" fill="url(#fb)" stroke="rgba(255,255,255,.5)" stroke-width="1"/></g><g opacity="0.57"><circle cx="445" cy="340" r="7" fill="url(#fb)" stroke="rgba(255,255,255,.5)" stroke-width="1"/></g><g opacity="0.8"><circle cx="336" cy="395" r="11" fill="url(#fb)" stroke="rgba(255,255,255,.5)" stroke-width="1"/></g><g opacity="0.78"><circle cx="507" cy="393" r="17" fill="url(#fb)" stroke="rgba(255,255,255,.5)" stroke-width="1"/></g><g opacity="0.62"><circle cx="582" cy="242" r="7" fill="url(#fb)" stroke="rgba(255,255,255,.5)" stroke-width="1"/></g><g opacity="0.69"><circle cx="469" cy="420" r="13" fill="url(#fb)" stroke="rgba(255,255,255,.5)" stroke-width="1"/></g><g opacity="0.42"><circle cx="239" cy="306" r="9" fill="url(#fb)" stroke="rgba(255,255,255,.5)" stroke-width="1"/></g><g opacity="0.74"><circle cx="589" cy="427" r="12" fill="url(#fb)" stroke="rgba(255,255,255,.5)" stroke-width="1"/></g><g opacity="0.82"><circle cx="342" cy="293" r="8" fill="url(#fb)" stroke="rgba(255,255,255,.5)" stroke-width="1"/></g><g opacity="0.62"><circle cx="452" cy="234" r="8" fill="url(#fb)" stroke="rgba(255,255,255,.5)" stroke-width="1"/></g><g opacity="0.81"><circle cx="387" cy="370" r="41" fill="url(#fb)" stroke="rgba(255,255,255,.5)" stroke-width="1"/><circle cx="374" cy="356" r="7" fill="rgba(255,255,255,.9)"/></g><g opacity="0.37"><circle cx="595" cy="271" r="9" fill="url(#fb)" stroke="rgba(255,255,255,.5)" stroke-width="1"/></g><g opacity="0.81"><circle cx="376" cy="187" r="14" fill="url(#fb)" stroke="rgba(255,255,255,.5)" stroke-width="1"/></g><g opacity="0.66"><circle cx="572" cy="430" r="14" fill="url(#fb)" stroke="rgba(255,255,255,.5)" stroke-width="1"/><circle cx="568" cy="425" r="2" fill="rgba(255,255,255,.9)"/></g><g opacity="0.82"><circle cx="365" cy="363" r="9" fill="url(#fb)" stroke="rgba(255,255,255,.5)" stroke-width="1"/></g><g opacity="0.65"><circle cx="509" cy="339" r="6" fill="url(#fb)" stroke="rgba(255,255,255,.5)" stroke-width="1"/><circle cx="507" cy="337" r="1" fill="rgba(255,255,255,.9)"/></g><g opacity="0.56"><circle cx="423" cy="272" r="7" fill="url(#fb)" stroke="rgba(255,255,255,.5)" stroke-width="1"/></g><g opacity="0.65"><circle cx="614" cy="313" r="12" fill="url(#fb)" stroke="rgba(255,255,255,.5)" stroke-width="1"/></g><g opacity="0.42"><circle cx="503" cy="366" r="8" fill="url(#fb)" stroke="rgba(255,255,255,.5)" stroke-width="1"/><circle cx="501" cy="363" r="1" fill="rgba(255,255,255,.9)"/></g><g opacity="0.47"><circle cx="503" cy="376" r="10" fill="url(#fb)" stroke="rgba(255,255,255,.5)" stroke-width="1"/></g><g opacity="0.49"><circle cx="430" cy="197" r="14" fill="url(#fb)" stroke="rgba(255,255,255,.5)" stroke-width="1"/><circle cx="426" cy="192" r="2" fill="rgba(255,255,255,.9)"/></g><g opacity="0.62"><circle cx="569" cy="334" r="9" fill="url(#fb)" stroke="rgba(255,255,255,.5)" stroke-width="1"/></g><g opacity="0.89"><circle cx="300" cy="346" r="12" fill="url(#fb)" stroke="rgba(255,255,255,.5)" stroke-width="1"/><circle cx="297" cy="342" r="2" fill="rgba(255,255,255,.9)"/></g><g opacity="0.9"><circle cx="475" cy="295" r="25" fill="url(#fb)" stroke="rgba(255,255,255,.5)" stroke-width="1"/><circle cx="467" cy="286" r="4" fill="rgba(255,255,255,.9)"/></g><g opacity="0.61"><circle cx="428" cy="213" r="17" fill="url(#fb)" stroke="rgba(255,255,255,.5)" stroke-width="1"/></g><g opacity="0.88"><circle cx="454" cy="378" r="10" fill="url(#fb)" stroke="rgba(255,255,255,.5)" stroke-width="1"/><circle cx="450" cy="374" r="2" fill="rgba(255,255,255,.9)"/></g><g opacity="0.38"><circle cx="235" cy="340" r="11" fill="url(#fb)" stroke="rgba(255,255,255,.5)" stroke-width="1"/></g><g opacity="0.63"><circle cx="573" cy="337" r="16" fill="url(#fb)" stroke="rgba(255,255,255,.5)" stroke-width="1"/></g><g opacity="0.86"><circle cx="378" cy="160" r="9" fill="url(#fb)" stroke="rgba(255,255,255,.5)" stroke-width="1"/></g><g opacity="0.65"><circle cx="422" cy="341" r="11" fill="url(#fb)" stroke="rgba(255,255,255,.5)" stroke-width="1"/></g><g opacity="0.46"><circle cx="331" cy="383" r="9" fill="url(#fb)" stroke="rgba(255,255,255,.5)" stroke-width="1"/></g><g opacity="0.39"><circle cx="602" cy="382" r="15" fill="url(#fb)" stroke="rgba(255,255,255,.5)" stroke-width="1"/></g><g opacity="0.59"><circle cx="584" cy="262" r="7" fill="url(#fb)" stroke="rgba(255,255,255,.5)" stroke-width="1"/></g><g opacity="0.74"><circle cx="685" cy="412" r="11" fill="url(#fb)" stroke="rgba(255,255,255,.5)" stroke-width="1"/></g><g opacity="0.61"><circle cx="300" cy="291" r="6" fill="url(#fb)" stroke="rgba(255,255,255,.5)" stroke-width="1"/></g><g opacity="0.78"><circle cx="590" cy="357" r="18" fill="url(#fb)" stroke="rgba(255,255,255,.5)" stroke-width="1"/></g><g opacity="0.4"><circle cx="291" cy="224" r="7" fill="url(#fb)" stroke="rgba(255,255,255,.5)" stroke-width="1"/></g><g opacity="0.73"><circle cx="500" cy="363" r="18" fill="url(#fb)" stroke="rgba(255,255,255,.5)" stroke-width="1"/></g><g opacity="0.87"><circle cx="331" cy="352" r="6" fill="url(#fb)" stroke="rgba(255,255,255,.5)" stroke-width="1"/></g><g opacity="0.61"><circle cx="369" cy="413" r="9" fill="url(#fb)" stroke="rgba(255,255,255,.5)" stroke-width="1"/></g><g opacity="0.4"><circle cx="412" cy="323" r="6" fill="url(#fb)" stroke="rgba(255,255,255,.5)" stroke-width="1"/></g><g opacity="0.77"><circle cx="511" cy="310" r="6" fill="url(#fb)" stroke="rgba(255,255,255,.5)" stroke-width="1"/></g><g opacity="0.86"><circle cx="390" cy="286" r="15" fill="url(#fb)" stroke="rgba(255,255,255,.5)" stroke-width="1"/></g><g opacity="0.44"><circle cx="552" cy="269" r="16" fill="url(#fb)" stroke="rgba(255,255,255,.5)" stroke-width="1"/><circle cx="547" cy="264" r="3" fill="rgba(255,255,255,.9)"/></g><g opacity="0.88"><circle cx="349" cy="294" r="5" fill="url(#fb)" stroke="rgba(255,255,255,.5)" stroke-width="1"/></g><g opacity="0.46"><circle cx="562" cy="339" r="11" fill="url(#fb)" stroke="rgba(255,255,255,.5)" stroke-width="1"/></g><g opacity="0.79"><circle cx="317" cy="418" r="9" fill="url(#fb)" stroke="rgba(255,255,255,.5)" stroke-width="1"/><circle cx="315" cy="414" r="1" fill="rgba(255,255,255,.9)"/></g><g opacity="0.58"><circle cx="446" cy="322" r="9" fill="url(#fb)" stroke="rgba(255,255,255,.5)" stroke-width="1"/><circle cx="443" cy="319" r="1" fill="rgba(255,255,255,.9)"/></g><g opacity="0.58"><circle cx="430" cy="184" r="10" fill="url(#fb)" stroke="rgba(255,255,255,.5)" stroke-width="1"/></g><g opacity="0.39"><circle cx="619" cy="395" r="15" fill="url(#fb)" stroke="rgba(255,255,255,.5)" stroke-width="1"/></g><g opacity="0.53"><circle cx="351" cy="319" r="7" fill="url(#fb)" stroke="rgba(255,255,255,.5)" stroke-width="1"/><circle cx="349" cy="317" r="1" fill="rgba(255,255,255,.9)"/></g><g opacity="0.57"><circle cx="548" cy="358" r="16" fill="url(#fb)" stroke="rgba(255,255,255,.5)" stroke-width="1"/><circle cx="543" cy="352" r="3" fill="rgba(255,255,255,.9)"/></g><g opacity="0.8"><circle cx="376" cy="212" r="15" fill="url(#fb)" stroke="rgba(255,255,255,.5)" stroke-width="1"/><circle cx="371" cy="206" r="2" fill="rgba(255,255,255,.9)"/></g><g opacity="0.88"><circle cx="612" cy="375" r="37" fill="url(#fb)" stroke="rgba(255,255,255,.5)" stroke-width="1"/><circle cx="600" cy="361" r="6" fill="rgba(255,255,255,.9)"/></g><g opacity="0.63"><circle cx="475" cy="460" r="18" fill="url(#fb)" stroke="rgba(255,255,255,.5)" stroke-width="1"/></g><g opacity="0.85"><circle cx="674" cy="399" r="10" fill="url(#fb)" stroke="rgba(255,255,255,.5)" stroke-width="1"/><circle cx="671" cy="396" r="2" fill="rgba(255,255,255,.9)"/></g><g opacity="0.7"><circle cx="296" cy="202" r="16" fill="url(#fb)" stroke="rgba(255,255,255,.5)" stroke-width="1"/><circle cx="291" cy="196" r="3" fill="rgba(255,255,255,.9)"/></g><g opacity="0.84"><circle cx="445" cy="378" r="12" fill="url(#fb)" stroke="rgba(255,255,255,.5)" stroke-width="1"/></g><g opacity="0.4"><circle cx="451" cy="383" r="9" fill="url(#fb)" stroke="rgba(255,255,255,.5)" stroke-width="1"/></g><g opacity="0.55"><circle cx="413" cy="389" r="9" fill="url(#fb)" stroke="rgba(255,255,255,.5)" stroke-width="1"/></g><g opacity="0.88"><circle cx="485" cy="277" r="33" fill="url(#fb)" stroke="rgba(255,255,255,.5)" stroke-width="1"/><circle cx="475" cy="265" r="5" fill="rgba(255,255,255,.9)"/></g><g opacity="0.78"><circle cx="479" cy="363" r="9" fill="url(#fb)" stroke="rgba(255,255,255,.5)" stroke-width="1"/><circle cx="476" cy="360" r="1" fill="rgba(255,255,255,.9)"/></g><g opacity="0.79"><circle cx="365" cy="375" r="17" fill="url(#fb)" stroke="rgba(255,255,255,.5)" stroke-width="1"/></g><g opacity="0.53"><circle cx="352" cy="355" r="11" fill="url(#fb)" stroke="rgba(255,255,255,.5)" stroke-width="1"/></g><g opacity="0.72"><circle cx="350" cy="238" r="13" fill="url(#fb)" stroke="rgba(255,255,255,.5)" stroke-width="1"/></g><g opacity="0.87"><circle cx="416" cy="367" r="16" fill="url(#fb)" stroke="rgba(255,255,255,.5)" stroke-width="1"/></g><g opacity="0.71"><circle cx="382" cy="368" r="10" fill="url(#fb)" stroke="rgba(255,255,255,.5)" stroke-width="1"/></g><g opacity="0.41"><circle cx="600" cy="408" r="8" fill="url(#fb)" stroke="rgba(255,255,255,.5)" stroke-width="1"/></g><g opacity="0.84"><circle cx="557" cy="187" r="17" fill="url(#fb)" stroke="rgba(255,255,255,.5)" stroke-width="1"/></g><g opacity="0.39"><circle cx="500" cy="283" r="15" fill="url(#fb)" stroke="rgba(255,255,255,.5)" stroke-width="1"/></g><g opacity="0.61"><circle cx="280" cy="429" r="5" fill="url(#fb)" stroke="rgba(255,255,255,.5)" stroke-width="1"/><circle cx="278" cy="428" r="1" fill="rgba(255,255,255,.9)"/></g><g opacity="0.53"><circle cx="539" cy="428" r="18" fill="url(#fb)" stroke="rgba(255,255,255,.5)" stroke-width="1"/><circle cx="533" cy="421" r="3" fill="rgba(255,255,255,.9)"/></g><g opacity="0.56"><circle cx="497" cy="200" r="5" fill="url(#fb)" stroke="rgba(255,255,255,.5)" stroke-width="1"/><circle cx="495" cy="198" r="1" fill="rgba(255,255,255,.9)"/></g><g opacity="0.79"><circle cx="472" cy="425" r="10" fill="url(#fb)" stroke="rgba(255,255,255,.5)" stroke-width="1"/></g><g opacity="0.46"><circle cx="361" cy="319" r="14" fill="url(#fb)" stroke="rgba(255,255,255,.5)" stroke-width="1"/></g><g opacity="0.4"><circle cx="620" cy="381" r="18" fill="url(#fb)" stroke="rgba(255,255,255,.5)" stroke-width="1"/></g><g opacity="0.88"><circle cx="454" cy="114" r="13" fill="url(#fb)" stroke="rgba(255,255,255,.5)" stroke-width="1"/></g><circle cx="498" cy="28" r="4" fill="none" stroke="rgba(255,255,255,.55)" stroke-width="1.2"/><circle cx="536" cy="177" r="6" fill="none" stroke="rgba(255,255,255,.55)" stroke-width="1.2"/><circle cx="423" cy="245" r="10" fill="none" stroke="rgba(255,255,255,.55)" stroke-width="1.2"/><circle cx="288" cy="282" r="6" fill="none" stroke="rgba(255,255,255,.55)" stroke-width="1.2"/><circle cx="357" cy="374" r="10" fill="none" stroke="rgba(255,255,255,.55)" stroke-width="1.2"/><circle cx="197" cy="48" r="8" fill="none" stroke="rgba(255,255,255,.55)" stroke-width="1.2"/><circle cx="448" cy="370" r="5" fill="none" stroke="rgba(255,255,255,.55)" stroke-width="1.2"/><circle cx="269" cy="29" r="5" fill="none" stroke="rgba(255,255,255,.55)" stroke-width="1.2"/><circle cx="51" cy="120" r="8" fill="none" stroke="rgba(255,255,255,.55)" stroke-width="1.2"/><circle cx="187" cy="438" r="4" fill="none" stroke="rgba(255,255,255,.55)" stroke-width="1.2"/><text x="40" y="462" font-family="monospace" font-size="17" fill="rgba(255,255,255,.8)">foam.media · 02</text></svg>