<svg xmlns="http://www.w3.org/2000/svg" viewBox="0 0 800 500"><defs><linearGradient id="bg" x1="0" y1="0" x2="0" y2="1"><stop offset="0" stop-color="#4168ee"/><stop offset="1" stop-color="#5ea0c6"/></linearGradient><radialGradient id="b0" cx="35%" cy="32%" r="70%"><stop offset="0" stop-color="rgba(255,255,255,.85)"/><stop offset=".4" stop-color="rgba(255,255,255,.05)"/><stop offset=".9" stop-color="rgba(255,255,255,.25)"/><stop offset="1" stop-color="rgba(255,255,255,.55)"/></radialGradient><radialGradient id="b1" cx="35%" cy="32%" r="70%"><stop offset="0" stop-color="rgba(255,255,255,.85)"/><stop offset=".4" stop-color="rgba(255,255,255,.05)"/><stop offset=".9" stop-color="rgba(255,255,255,.25)"/><stop offset="1" stop-color="rgba(255,255,255,.55)"/></radialGradient><radialGradient id="b2" cx="35%" cy="32%" r="70%"><stop offset="0" stop-color="rgba(255,255,255,.85)"/><stop offset=".4" stop-color="rgba(255,255,255,.05)"/><stop offset=".9" stop-color="rgba(255,255,255,.25)"/><stop offset="1" stop-color="rgba(255,255,255,.55)"/></radialGradient><radialGradient id="b3" cx="35%" cy="32%" r="70%"><stop offset="0" stop-color="rgba(255,255,255,.85)"/><stop offset=".4" stop-color="rgba(255,255,255,.05)"/><stop offset=".9" stop-color="rgba(255,255,255,.25)"/><stop offset="1" stop-color="rgba(255,255,255,.55)"/></radialGradient><radialGradient id="b4" cx="35%" cy="32%" r="70%"><stop offset="0" stop-color="rgba(255,255,255,.85)"/><stop offset=".4" stop-color="rgba(255,255,255,.05)"/><stop offset=".9" stop-color="rgba(255,255,255,.25)"/><stop offset="1" stop-color="rgba(255,255,255,.55)"/></radialGradient><radialGradient id="b5" cx="35%" cy="32%" r="70%"><stop offset="0" stop-color="rgba(255,255,255,.85)"/><stop offset=".4" stop-color="rgba(255,255,255,.05)"/><stop offset=".9" stop-color="rgba(255,255,255,.25)"/><stop offset="1" stop-color="rgba(255,255,255,.55)"/></radialGradient><radialGradient id="b6" cx="35%" cy="32%" r="70%"><stop offset="0" stop-color="rgba(255,255,255,.85)"/><stop offset=".4" stop-color="rgba(255,255,255,.05)"/><stop offset=".9" stop-color="rgba(255,255,255,.25)"/><stop offset="1" stop-color="rgba(255,255,255,.55)"/></radialGradient><radialGradient id="b7" cx="35%" cy="32%" r="70%"><stop offset="0" stop-color="rgba(255,255,255,.85)"/><stop offset=".4" stop-color="rgba(255,255,255,.05)"/><stop offset=".9" stop-color="rgba(255,255,255,.25)"/><stop offset="1" stop-color="rgba(255,255,255,.55)"/></radialGradient><radialGradient id="b8" cx="35%" cy="32%" r="70%"><stop offset="0" stop-color="rgba(255,255,255,.85)"/><stop offset=".4" stop-color="rgba(255,255,255,.05)"/><stop offset=".9" stop-color="rgba(255,255,255,.25)"/><stop offset="1" stop-color="rgba(255,255,255,.55)"/></radialGradient><radialGradient id="b9" cx="35%" cy="32%" r="70%"><stop offset="0" stop-color="rgba(255,255,255,.85)"/><stop offset=".4" stop-color="rgba(255,255,255,.05)"/><stop offset=".9" stop-color="rgba(255,255,255,.25)"/><stop offset="1" stop-color="rgba(255,255,255,.55)"/></radialGradient><radialGradient id="b10" cx="35%" cy="32%" r="70%"><stop offset="0" stop-color="rgba(255,255,255,.85)"/><stop offset=".4" stop-color="rgba(255,255,255,.05)"/><stop offset=".9" stop-color="rgba(255,255,255,.25)"/><stop offset="1" stop-color="rgba(255,255,255,.55)"/></radialGradient><radialGradient id="b11" cx="35%" cy="32%" r="70%"><stop offset="0" stop-color="rgba(255,255,255,.85)"/><stop offset=".4" stop-color="rgba(255,255,255,.05)"/><stop offset=".9" stop-color="rgba(255,255,255,.25)"/><stop offset="1" stop-color="rgba(255,255,255,.55)"/></radialGradient><radialGradient id="b12" cx="35%" cy="32%" r="70%"><stop offset="0" stop-color="rgba(255,255,255,.85)"/><stop offset=".4" stop-color="rgba(255,255,255,.05)"/><stop offset=".9" stop-color="rgba(255,255,255,.25)"/><stop offset="1" stop-color="rgba(255,255,255,.55)"/></radialGradient><radialGradient id="b13" cx="35%" cy="32%" r="70%"><stop offset="0" stop-color="rgba(255,255,255,.85)"/><stop offset=".4" stop-color="rgba(255,255,255,.05)"/><stop offset=".9" stop-color="rgba(255,255,255,.25)"/><stop offset="1" stop-color="rgba(255,255,255,.55)"/></radialGradient><radialGradient id="b14" cx="35%" cy="32%" r="70%"><stop offset="0" stop-color="rgba(255,255,255,.85)"/><stop offset=".4" stop-color="rgba(255,255,255,.05)"/><stop offset=".9" stop-color="rgba(255,255,255,.25)"/><stop offset="1" stop-color="rgba(255,255,255,.55)"/></radialGradient><radialGradient id="b15" cx="35%" cy="32%" r="70%"><stop offset="0" stop-color="rgba(255,255,255,.85)"/><stop offset=".4" stop-color="rgba(255,255,255,.05)"/><stop offset=".9" stop-color="rgba(255,255,255,.25)"/><stop offset="1" stop-color="rgba(255,255,255,.55)"/></radialGradient></defs><rect width="800" height="500" fill="url(#bg)"/><g opacity="0.33"><circle cx="578" cy="247" r="61" fill="url(#b0)" stroke="rgba(255,255,255,.6)" stroke-width="1.4"/><ellipse cx="556" cy="221" rx="13" ry="7" fill="rgba(255,255,255,.75)" transform="rotate(-30 556 221)"/></g><g opacity="0.38"><circle cx="481" cy="162" r="85" fill="url(#b1)" stroke="rgba(255,255,255,.6)" stroke-width="1.4"/><ellipse cx="450" cy="126" rx="19" ry="9" fill="rgba(255,255,255,.75)" transform="rotate(-30 450 126)"/></g><g opacity="0.58"><circle cx="78" cy="342" r="30" fill="url(#b2)" stroke="rgba(255,255,255,.6)" stroke-width="1.4"/><ellipse cx="67" cy="329" rx="7" ry="3" fill="rgba(255,255,255,.75)" transform="rotate(-30 67 329)"/></g><g opacity="0.39"><circle cx="313" cy="353" r="56" fill="url(#b3)" stroke="rgba(255,255,255,.6)" stroke-width="1.4"/><ellipse cx="293" cy="329" rx="12" ry="6" fill="rgba(255,255,255,.75)" transform="rotate(-30 293 329)"/></g><g opacity="0.36"><circle cx="44" cy="259" r="23" fill="url(#b4)" stroke="rgba(255,255,255,.6)" stroke-width="1.4"/><ellipse cx="36" cy="249" rx="5" ry="3" fill="rgba(255,255,255,.75)" transform="rotate(-30 36 249)"/></g><g opacity="0.52"><circle cx="238" cy="214" r="108" fill="url(#b5)" stroke="rgba(255,255,255,.6)" stroke-width="1.4"/><ellipse cx="199" cy="169" rx="24" ry="12" fill="rgba(255,255,255,.75)" transform="rotate(-30 199 169)"/></g><g opacity="0.44"><circle cx="666" cy="132" r="20" fill="url(#b6)" stroke="rgba(255,255,255,.6)" stroke-width="1.4"/><ellipse cx="659" cy="124" rx="4" ry="2" fill="rgba(255,255,255,.75)" transform="rotate(-30 659 124)"/></g><g opacity="0.45"><circle cx="495" cy="371" r="51" fill="url(#b7)" stroke="rgba(255,255,255,.6)" stroke-width="1.4"/><ellipse cx="477" cy="350" rx="11" ry="6" fill="rgba(255,255,255,.75)" transform="rotate(-30 477 350)"/></g><g opacity="0.32"><circle cx="532" cy="215" r="88" fill="url(#b8)" stroke="rgba(255,255,255,.6)" stroke-width="1.4"/><ellipse cx="500" cy="178" rx="19" ry="10" fill="rgba(255,255,255,.75)" transform="rotate(-30 500 178)"/></g><g opacity="0.67"><circle cx="399" cy="200" r="63" fill="url(#b9)" stroke="rgba(255,255,255,.6)" stroke-width="1.4"/><ellipse cx="376" cy="174" rx="14" ry="7" fill="rgba(255,255,255,.75)" transform="rotate(-30 376 174)"/></g><g opacity="0.78"><circle cx="468" cy="76" r="99" fill="url(#b10)" stroke="rgba(255,255,255,.6)" stroke-width="1.4"/><ellipse cx="432" cy="34" rx="22" ry="11" fill="rgba(255,255,255,.75)" transform="rotate(-30 432 34)"/></g><g opacity="0.36"><circle cx="623" cy="389" r="87" fill="url(#b11)" stroke="rgba(255,255,255,.6)" stroke-width="1.4"/><ellipse cx="592" cy="352" rx="19" ry="10" fill="rgba(255,255,255,.75)" transform="rotate(-30 592 352)"/></g><g opacity="0.45"><circle cx="366" cy="46" r="64" fill="url(#b12)" stroke="rgba(255,255,255,.6)" stroke-width="1.4"/><ellipse cx="343" cy="19" rx="14" ry="7" fill="rgba(255,255,255,.75)" transform="rotate(-30 343 19)"/></g><g opacity="0.39"><circle cx="697" cy="214" r="29" fill="url(#b13)" stroke="rgba(255,255,255,.6)" stroke-width="1.4"/><ellipse cx="687" cy="202" rx="6" ry="3" fill="rgba(255,255,255,.75)" transform="rotate(-30 687 202)"/></g><g opacity="0.29"><circle cx="518" cy="92" r="23" fill="url(#b14)" stroke="rgba(255,255,255,.6)" stroke-width="1.4"/><ellipse cx="510" cy="82" rx="5" ry="3" fill="rgba(255,255,255,.75)" transform="rotate(-30 510 82)"/></g><g opacity="0.65"><circle cx="514" cy="414" r="22" fill="url(#b15)" stroke="rgba(255,255,255,.6)" stroke-width="1.4"/><ellipse cx="506" cy="405" rx="5" ry="2" fill="rgba(255,255,255,.75)" transform="rotate(-30 506 405)"/></g><text x="40" y="462" font-family="monospace" font-size="17" fill="rgba(255,255,255,.75)">foam.media · 03</text></svg>